<mxfile host="app.diagrams.net" modified="2023-02-21T13:51:27.746Z" agent="5.0 (Windows)" etag="3FVauimv5ffuFNurWeus" version="20.8.21" type="github">
  <diagram name="Page-1" id="5XUxKZGNFZnlBBJXVidY">
    <mxGraphModel dx="3056" dy="1203" grid="1" gridSize="10" guides="1" tooltips="1" connect="1" arrows="1" fold="1" page="1" pageScale="1" pageWidth="850" pageHeight="1100" math="0" shadow="0">
      <root>
        <mxCell id="0" />
        <mxCell id="1" parent="0" />
        <mxCell id="vhygpVMg7qetOzyWHxxr-3" value="Y" style="rounded=1;whiteSpace=wrap;html=1;strokeColor=#FFFFFF;fontColor=#FFFFFF;fillColor=#182E3E;fontSize=20;" vertex="1" parent="1">
          <mxGeometry x="475" y="140" width="60" height="60" as="geometry" />
        </mxCell>
        <mxCell id="vhygpVMg7qetOzyWHxxr-4" value="U" style="rounded=1;whiteSpace=wrap;html=1;strokeColor=#FFFFFF;fontColor=#FFFFFF;fillColor=#182E3E;fontSize=20;" vertex="1" parent="1">
          <mxGeometry x="535" y="130" width="60" height="60" as="geometry" />
        </mxCell>
        <mxCell id="vhygpVMg7qetOzyWHxxr-5" value="I" style="rounded=1;whiteSpace=wrap;html=1;strokeColor=#FFFFFF;fontColor=#FFFFFF;fillColor=#182E3E;fontSize=20;" vertex="1" parent="1">
          <mxGeometry x="595" y="120" width="60" height="60" as="geometry" />
        </mxCell>
        <mxCell id="vhygpVMg7qetOzyWHxxr-6" value="O" style="rounded=1;whiteSpace=wrap;html=1;strokeColor=#FFFFFF;fontColor=#FFFFFF;fillColor=#182E3E;fontSize=20;" vertex="1" parent="1">
          <mxGeometry x="655" y="130" width="60" height="60" as="geometry" />
        </mxCell>
        <mxCell id="vhygpVMg7qetOzyWHxxr-7" value="P" style="rounded=1;whiteSpace=wrap;html=1;strokeColor=#FFFFFF;fontColor=#FFFFFF;fillColor=#182E3E;fontSize=20;" vertex="1" parent="1">
          <mxGeometry x="715" y="140" width="60" height="60" as="geometry" />
        </mxCell>
        <mxCell id="vhygpVMg7qetOzyWHxxr-8" value="" style="rounded=1;whiteSpace=wrap;html=1;strokeColor=#FFFFFF;fontColor=#FFFFFF;fillColor=#182E3E;fontSize=20;" vertex="1" parent="1">
          <mxGeometry x="775" y="140" width="60" height="60" as="geometry" />
        </mxCell>
        <mxCell id="vhygpVMg7qetOzyWHxxr-9" value="H" style="rounded=1;whiteSpace=wrap;html=1;strokeColor=#FFFFFF;fontColor=#FFFFFF;fillColor=#182E3E;fontSize=20;" vertex="1" parent="1">
          <mxGeometry x="475" y="200" width="60" height="60" as="geometry" />
        </mxCell>
        <mxCell id="vhygpVMg7qetOzyWHxxr-10" value="J" style="rounded=1;whiteSpace=wrap;html=1;strokeColor=#FFFFFF;fontColor=#FFFFFF;fillColor=#182E3E;fontSize=20;" vertex="1" parent="1">
          <mxGeometry x="535" y="190" width="60" height="60" as="geometry" />
        </mxCell>
        <mxCell id="vhygpVMg7qetOzyWHxxr-11" value="K" style="rounded=1;whiteSpace=wrap;html=1;strokeColor=#FFFFFF;fontColor=#FFFFFF;fillColor=#182E3E;fontSize=20;" vertex="1" parent="1">
          <mxGeometry x="595" y="180" width="60" height="60" as="geometry" />
        </mxCell>
        <mxCell id="vhygpVMg7qetOzyWHxxr-12" value="L" style="rounded=1;whiteSpace=wrap;html=1;strokeColor=#FFFFFF;fontColor=#FFFFFF;fillColor=#182E3E;fontSize=20;" vertex="1" parent="1">
          <mxGeometry x="655" y="190" width="60" height="60" as="geometry" />
        </mxCell>
        <mxCell id="vhygpVMg7qetOzyWHxxr-13" value="ò" style="rounded=1;whiteSpace=wrap;html=1;strokeColor=#FFFFFF;fontColor=#FFFFFF;fillColor=#182E3E;fontSize=20;" vertex="1" parent="1">
          <mxGeometry x="715" y="200" width="60" height="60" as="geometry" />
        </mxCell>
        <mxCell id="vhygpVMg7qetOzyWHxxr-14" value="" style="rounded=1;whiteSpace=wrap;html=1;strokeColor=#FFFFFF;fontColor=#FFFFFF;fillColor=#182E3E;fontSize=20;" vertex="1" parent="1">
          <mxGeometry x="775" y="200" width="60" height="60" as="geometry" />
        </mxCell>
        <mxCell id="vhygpVMg7qetOzyWHxxr-15" value="N" style="rounded=1;whiteSpace=wrap;html=1;strokeColor=#FFFFFF;fontColor=#FFFFFF;fillColor=#182E3E;fontSize=20;" vertex="1" parent="1">
          <mxGeometry x="475" y="260" width="60" height="60" as="geometry" />
        </mxCell>
        <mxCell id="vhygpVMg7qetOzyWHxxr-16" value="M" style="rounded=1;whiteSpace=wrap;html=1;strokeColor=#FFFFFF;fontColor=#FFFFFF;fillColor=#182E3E;fontSize=20;" vertex="1" parent="1">
          <mxGeometry x="535" y="250" width="60" height="60" as="geometry" />
        </mxCell>
        <mxCell id="vhygpVMg7qetOzyWHxxr-17" value="," style="rounded=1;whiteSpace=wrap;html=1;strokeColor=#FFFFFF;fontColor=#FFFFFF;fillColor=#182E3E;fontSize=20;" vertex="1" parent="1">
          <mxGeometry x="595" y="240" width="60" height="60" as="geometry" />
        </mxCell>
        <mxCell id="vhygpVMg7qetOzyWHxxr-18" value="." style="rounded=1;whiteSpace=wrap;html=1;strokeColor=#FFFFFF;fontColor=#FFFFFF;fillColor=#182E3E;fontSize=20;" vertex="1" parent="1">
          <mxGeometry x="655" y="250" width="60" height="60" as="geometry" />
        </mxCell>
        <mxCell id="vhygpVMg7qetOzyWHxxr-19" value="ù" style="rounded=1;whiteSpace=wrap;html=1;strokeColor=#FFFFFF;fontColor=#FFFFFF;fillColor=#182E3E;fontSize=20;" vertex="1" parent="1">
          <mxGeometry x="715" y="260" width="60" height="60" as="geometry" />
        </mxCell>
        <mxCell id="vhygpVMg7qetOzyWHxxr-20" value="" style="rounded=1;whiteSpace=wrap;html=1;strokeColor=#FFFFFF;fontColor=#FFFFFF;fillColor=#182E3E;fontSize=20;" vertex="1" parent="1">
          <mxGeometry x="775" y="260" width="60" height="60" as="geometry" />
        </mxCell>
        <mxCell id="vhygpVMg7qetOzyWHxxr-39" value="T" style="rounded=1;whiteSpace=wrap;html=1;strokeColor=#FFFFFF;fontColor=#FFFFFF;fillColor=#182E3E;fontSize=20;" vertex="1" parent="1">
          <mxGeometry x="315" y="140" width="60" height="60" as="geometry" />
        </mxCell>
        <mxCell id="vhygpVMg7qetOzyWHxxr-40" value="R" style="rounded=1;whiteSpace=wrap;html=1;strokeColor=#FFFFFF;fontColor=#FFFFFF;fillColor=#182E3E;fontSize=20;" vertex="1" parent="1">
          <mxGeometry x="255" y="130" width="60" height="60" as="geometry" />
        </mxCell>
        <mxCell id="vhygpVMg7qetOzyWHxxr-41" value="E" style="rounded=1;whiteSpace=wrap;html=1;strokeColor=#FFFFFF;fontColor=#FFFFFF;fillColor=#182E3E;fontSize=20;" vertex="1" parent="1">
          <mxGeometry x="195" y="120" width="60" height="60" as="geometry" />
        </mxCell>
        <mxCell id="vhygpVMg7qetOzyWHxxr-42" value="W" style="rounded=1;whiteSpace=wrap;html=1;strokeColor=#FFFFFF;fontColor=#FFFFFF;fillColor=#182E3E;fontSize=20;" vertex="1" parent="1">
          <mxGeometry x="135" y="130" width="60" height="60" as="geometry" />
        </mxCell>
        <mxCell id="vhygpVMg7qetOzyWHxxr-43" value="Q" style="rounded=1;whiteSpace=wrap;html=1;strokeColor=#FFFFFF;fontColor=#FFFFFF;fillColor=#182E3E;fontSize=20;" vertex="1" parent="1">
          <mxGeometry x="75" y="140" width="60" height="60" as="geometry" />
        </mxCell>
        <mxCell id="vhygpVMg7qetOzyWHxxr-44" value="" style="rounded=1;whiteSpace=wrap;html=1;strokeColor=#FFFFFF;fontColor=#FFFFFF;fillColor=#182E3E;fontSize=20;" vertex="1" parent="1">
          <mxGeometry x="15" y="140" width="60" height="60" as="geometry" />
        </mxCell>
        <mxCell id="vhygpVMg7qetOzyWHxxr-45" value="G" style="rounded=1;whiteSpace=wrap;html=1;strokeColor=#FFFFFF;fontColor=#FFFFFF;fillColor=#182E3E;fontSize=20;" vertex="1" parent="1">
          <mxGeometry x="315" y="200" width="60" height="60" as="geometry" />
        </mxCell>
        <mxCell id="vhygpVMg7qetOzyWHxxr-46" value="F" style="rounded=1;whiteSpace=wrap;html=1;strokeColor=#FFFFFF;fontColor=#FFFFFF;fillColor=#182E3E;fontSize=20;" vertex="1" parent="1">
          <mxGeometry x="255" y="190" width="60" height="60" as="geometry" />
        </mxCell>
        <mxCell id="vhygpVMg7qetOzyWHxxr-47" value="D" style="rounded=1;whiteSpace=wrap;html=1;strokeColor=#FFFFFF;fontColor=#FFFFFF;fillColor=#182E3E;fontSize=20;" vertex="1" parent="1">
          <mxGeometry x="195" y="180" width="60" height="60" as="geometry" />
        </mxCell>
        <mxCell id="vhygpVMg7qetOzyWHxxr-48" value="S" style="rounded=1;whiteSpace=wrap;html=1;strokeColor=#FFFFFF;fontColor=#FFFFFF;fillColor=#182E3E;fontSize=20;" vertex="1" parent="1">
          <mxGeometry x="135" y="190" width="60" height="60" as="geometry" />
        </mxCell>
        <mxCell id="vhygpVMg7qetOzyWHxxr-49" value="A" style="rounded=1;whiteSpace=wrap;html=1;strokeColor=#FFFFFF;fontColor=#FFFFFF;fillColor=#182E3E;fontSize=20;" vertex="1" parent="1">
          <mxGeometry x="75" y="200" width="60" height="60" as="geometry" />
        </mxCell>
        <mxCell id="vhygpVMg7qetOzyWHxxr-50" value="" style="rounded=1;whiteSpace=wrap;html=1;strokeColor=#FFFFFF;fontColor=#FFFFFF;fillColor=#182E3E;fontSize=20;" vertex="1" parent="1">
          <mxGeometry x="15" y="200" width="60" height="60" as="geometry" />
        </mxCell>
        <mxCell id="vhygpVMg7qetOzyWHxxr-51" value="B" style="rounded=1;whiteSpace=wrap;html=1;strokeColor=#FFFFFF;fontColor=#FFFFFF;fillColor=#182E3E;fontSize=20;" vertex="1" parent="1">
          <mxGeometry x="315" y="260" width="60" height="60" as="geometry" />
        </mxCell>
        <mxCell id="vhygpVMg7qetOzyWHxxr-52" value="V" style="rounded=1;whiteSpace=wrap;html=1;strokeColor=#FFFFFF;fontColor=#FFFFFF;fillColor=#182E3E;fontSize=20;" vertex="1" parent="1">
          <mxGeometry x="255" y="250" width="60" height="60" as="geometry" />
        </mxCell>
        <mxCell id="vhygpVMg7qetOzyWHxxr-53" value="C" style="rounded=1;whiteSpace=wrap;html=1;strokeColor=#FFFFFF;fontColor=#FFFFFF;fillColor=#182E3E;fontSize=20;" vertex="1" parent="1">
          <mxGeometry x="195" y="240" width="60" height="60" as="geometry" />
        </mxCell>
        <mxCell id="vhygpVMg7qetOzyWHxxr-54" value="X" style="rounded=1;whiteSpace=wrap;html=1;strokeColor=#FFFFFF;fontColor=#FFFFFF;fillColor=#182E3E;fontSize=20;" vertex="1" parent="1">
          <mxGeometry x="135" y="250" width="60" height="60" as="geometry" />
        </mxCell>
        <mxCell id="vhygpVMg7qetOzyWHxxr-55" value="Z" style="rounded=1;whiteSpace=wrap;html=1;strokeColor=#FFFFFF;fontColor=#FFFFFF;fillColor=#182E3E;fontSize=20;" vertex="1" parent="1">
          <mxGeometry x="75" y="260" width="60" height="60" as="geometry" />
        </mxCell>
        <mxCell id="vhygpVMg7qetOzyWHxxr-56" value="" style="rounded=1;whiteSpace=wrap;html=1;strokeColor=#FFFFFF;fontColor=#FFFFFF;fillColor=#182E3E;fontSize=20;" vertex="1" parent="1">
          <mxGeometry x="15" y="260" width="60" height="60" as="geometry" />
        </mxCell>
        <mxCell id="vhygpVMg7qetOzyWHxxr-57" value="" style="rounded=1;whiteSpace=wrap;html=1;strokeColor=#FFFFFF;fontColor=#FFFFFF;fillColor=#182E3E;fontSize=20;" vertex="1" parent="1">
          <mxGeometry x="615" y="340" width="60" height="60" as="geometry" />
        </mxCell>
        <mxCell id="vhygpVMg7qetOzyWHxxr-58" value="" style="rounded=1;whiteSpace=wrap;html=1;strokeColor=#FFFFFF;fontColor=#FFFFFF;fillColor=#182E3E;fontSize=20;" vertex="1" parent="1">
          <mxGeometry x="175" y="340" width="60" height="60" as="geometry" />
        </mxCell>
        <mxCell id="vhygpVMg7qetOzyWHxxr-150" style="edgeStyle=orthogonalEdgeStyle;rounded=0;orthogonalLoop=1;jettySize=auto;html=1;entryX=0;entryY=0.5;entryDx=0;entryDy=0;strokeColor=#990000;fontSize=20;strokeWidth=3;" edge="1" parent="1" source="vhygpVMg7qetOzyWHxxr-59" target="vhygpVMg7qetOzyWHxxr-149">
          <mxGeometry relative="1" as="geometry">
            <Array as="points">
              <mxPoint x="275" y="440" />
              <mxPoint x="-40" y="440" />
              <mxPoint x="-40" y="960" />
            </Array>
          </mxGeometry>
        </mxCell>
        <mxCell id="vhygpVMg7qetOzyWHxxr-59" value="EXT" style="rounded=1;whiteSpace=wrap;html=1;strokeColor=#FFFFFF;fontColor=#FFFFFF;fillColor=#990000;rotation=15;fontSize=20;" vertex="1" parent="1">
          <mxGeometry x="245" y="350" width="60" height="60" as="geometry" />
        </mxCell>
        <mxCell id="vhygpVMg7qetOzyWHxxr-60" value="SHIFT" style="rounded=1;whiteSpace=wrap;html=1;strokeColor=#FFFFFF;fontColor=#FFFFFF;fillColor=#182E3E;rotation=45;fontSize=20;" vertex="1" parent="1">
          <mxGeometry x="315" y="360" width="60" height="60" as="geometry" />
        </mxCell>
        <mxCell id="vhygpVMg7qetOzyWHxxr-154" style="edgeStyle=orthogonalEdgeStyle;rounded=0;orthogonalLoop=1;jettySize=auto;html=1;entryX=0;entryY=0.5;entryDx=0;entryDy=0;strokeColor=#9933FF;fontSize=20;strokeWidth=3;" edge="1" parent="1" source="vhygpVMg7qetOzyWHxxr-61" target="vhygpVMg7qetOzyWHxxr-152">
          <mxGeometry relative="1" as="geometry">
            <Array as="points">
              <mxPoint x="505" y="450" />
              <mxPoint x="730" y="450" />
            </Array>
          </mxGeometry>
        </mxCell>
        <mxCell id="vhygpVMg7qetOzyWHxxr-61" value="SPACE" style="rounded=1;whiteSpace=wrap;html=1;strokeColor=#FFFFFF;fontColor=#FFFFFF;fillColor=#182E3E;rotation=-30;fontSize=20;" vertex="1" parent="1">
          <mxGeometry x="475" y="360" width="60" height="60" as="geometry" />
        </mxCell>
        <mxCell id="vhygpVMg7qetOzyWHxxr-151" style="edgeStyle=orthogonalEdgeStyle;rounded=0;orthogonalLoop=1;jettySize=auto;html=1;entryX=1;entryY=0.5;entryDx=0;entryDy=0;strokeColor=#007FFF;fontSize=20;strokeWidth=3;" edge="1" parent="1" source="vhygpVMg7qetOzyWHxxr-62" target="vhygpVMg7qetOzyWHxxr-106">
          <mxGeometry relative="1" as="geometry">
            <Array as="points">
              <mxPoint x="580" y="510" />
            </Array>
          </mxGeometry>
        </mxCell>
        <mxCell id="vhygpVMg7qetOzyWHxxr-153" style="edgeStyle=orthogonalEdgeStyle;rounded=0;orthogonalLoop=1;jettySize=auto;html=1;entryX=0;entryY=0.5;entryDx=0;entryDy=0;strokeColor=#9933FF;fontSize=20;strokeWidth=3;" edge="1" parent="1" source="vhygpVMg7qetOzyWHxxr-62" target="vhygpVMg7qetOzyWHxxr-152">
          <mxGeometry relative="1" as="geometry">
            <Array as="points">
              <mxPoint x="550" y="450" />
              <mxPoint x="730" y="450" />
            </Array>
          </mxGeometry>
        </mxCell>
        <mxCell id="vhygpVMg7qetOzyWHxxr-62" value="SYM 1" style="rounded=1;whiteSpace=wrap;html=1;strokeColor=#FFFFFF;fontColor=#FFFFFF;fillColor=#007FFF;rotation=-15;fontSize=20;" vertex="1" parent="1">
          <mxGeometry x="545" y="350" width="60" height="60" as="geometry" />
        </mxCell>
        <mxCell id="vhygpVMg7qetOzyWHxxr-63" value="BASE" style="rounded=1;whiteSpace=wrap;html=1;strokeColor=#FFFFFF;fontColor=#FFFFFF;fillColor=#182E3E;fontSize=20;" vertex="1" parent="1">
          <mxGeometry x="355" y="20" width="130" height="60" as="geometry" />
        </mxCell>
        <mxCell id="vhygpVMg7qetOzyWHxxr-64" value="6" style="rounded=1;whiteSpace=wrap;html=1;strokeColor=#FFFFFF;fontColor=#FFFFFF;fillColor=#182E3E;fontSize=20;" vertex="1" parent="1">
          <mxGeometry x="470" y="600" width="60" height="60" as="geometry" />
        </mxCell>
        <mxCell id="vhygpVMg7qetOzyWHxxr-65" value="7" style="rounded=1;whiteSpace=wrap;html=1;strokeColor=#FFFFFF;fontColor=#FFFFFF;fillColor=#182E3E;fontSize=20;" vertex="1" parent="1">
          <mxGeometry x="530" y="590" width="60" height="60" as="geometry" />
        </mxCell>
        <mxCell id="vhygpVMg7qetOzyWHxxr-66" value="8" style="rounded=1;whiteSpace=wrap;html=1;strokeColor=#FFFFFF;fontColor=#FFFFFF;fillColor=#182E3E;fontSize=20;" vertex="1" parent="1">
          <mxGeometry x="590" y="580" width="60" height="60" as="geometry" />
        </mxCell>
        <mxCell id="vhygpVMg7qetOzyWHxxr-67" value="9" style="rounded=1;whiteSpace=wrap;html=1;strokeColor=#FFFFFF;fontColor=#FFFFFF;fillColor=#182E3E;fontSize=20;" vertex="1" parent="1">
          <mxGeometry x="650" y="590" width="60" height="60" as="geometry" />
        </mxCell>
        <mxCell id="vhygpVMg7qetOzyWHxxr-68" value="0" style="rounded=1;whiteSpace=wrap;html=1;strokeColor=#FFFFFF;fontColor=#FFFFFF;fillColor=#182E3E;fontSize=20;" vertex="1" parent="1">
          <mxGeometry x="710" y="600" width="60" height="60" as="geometry" />
        </mxCell>
        <mxCell id="vhygpVMg7qetOzyWHxxr-69" value="" style="rounded=1;whiteSpace=wrap;html=1;strokeColor=#FFFFFF;fontColor=#FFFFFF;fillColor=#182E3E;fontSize=20;" vertex="1" parent="1">
          <mxGeometry x="770" y="600" width="60" height="60" as="geometry" />
        </mxCell>
        <mxCell id="vhygpVMg7qetOzyWHxxr-70" value="=" style="rounded=1;whiteSpace=wrap;html=1;strokeColor=#FFFFFF;fontColor=#FFFFFF;fillColor=#182E3E;fontSize=20;" vertex="1" parent="1">
          <mxGeometry x="470" y="660" width="60" height="60" as="geometry" />
        </mxCell>
        <mxCell id="vhygpVMg7qetOzyWHxxr-71" value="?" style="rounded=1;whiteSpace=wrap;html=1;strokeColor=#FFFFFF;fontColor=#FFFFFF;fillColor=#182E3E;fontSize=20;" vertex="1" parent="1">
          <mxGeometry x="530" y="650" width="60" height="60" as="geometry" />
        </mxCell>
        <mxCell id="vhygpVMg7qetOzyWHxxr-72" value="&#39;" style="rounded=1;whiteSpace=wrap;html=1;strokeColor=#FFFFFF;fontColor=#FFFFFF;fillColor=#182E3E;fontSize=20;" vertex="1" parent="1">
          <mxGeometry x="590" y="640" width="60" height="60" as="geometry" />
        </mxCell>
        <mxCell id="vhygpVMg7qetOzyWHxxr-73" value="+" style="rounded=1;whiteSpace=wrap;html=1;strokeColor=#FFFFFF;fontColor=#FFFFFF;fillColor=#182E3E;fontSize=20;" vertex="1" parent="1">
          <mxGeometry x="650" y="650" width="60" height="60" as="geometry" />
        </mxCell>
        <mxCell id="vhygpVMg7qetOzyWHxxr-74" value="*" style="rounded=1;whiteSpace=wrap;html=1;strokeColor=#FFFFFF;fontColor=#FFFFFF;fillColor=#182E3E;fontSize=20;" vertex="1" parent="1">
          <mxGeometry x="710" y="660" width="60" height="60" as="geometry" />
        </mxCell>
        <mxCell id="vhygpVMg7qetOzyWHxxr-75" value="" style="rounded=1;whiteSpace=wrap;html=1;strokeColor=#FFFFFF;fontColor=#FFFFFF;fillColor=#182E3E;fontSize=20;" vertex="1" parent="1">
          <mxGeometry x="770" y="660" width="60" height="60" as="geometry" />
        </mxCell>
        <mxCell id="vhygpVMg7qetOzyWHxxr-76" value="@" style="rounded=1;whiteSpace=wrap;html=1;strokeColor=#FFFFFF;fontColor=#FFFFFF;fillColor=#182E3E;fontSize=20;" vertex="1" parent="1">
          <mxGeometry x="470" y="720" width="60" height="60" as="geometry" />
        </mxCell>
        <mxCell id="vhygpVMg7qetOzyWHxxr-77" value="!" style="rounded=1;whiteSpace=wrap;html=1;strokeColor=#FFFFFF;fontColor=#FFFFFF;fillColor=#182E3E;fontSize=20;" vertex="1" parent="1">
          <mxGeometry x="530" y="710" width="60" height="60" as="geometry" />
        </mxCell>
        <mxCell id="vhygpVMg7qetOzyWHxxr-78" value="&quot;" style="rounded=1;whiteSpace=wrap;html=1;strokeColor=#FFFFFF;fontColor=#FFFFFF;fillColor=#182E3E;fontSize=20;" vertex="1" parent="1">
          <mxGeometry x="590" y="700" width="60" height="60" as="geometry" />
        </mxCell>
        <mxCell id="vhygpVMg7qetOzyWHxxr-79" value="-" style="rounded=1;whiteSpace=wrap;html=1;strokeColor=#FFFFFF;fontColor=#FFFFFF;fillColor=#182E3E;fontSize=20;" vertex="1" parent="1">
          <mxGeometry x="650" y="710" width="60" height="60" as="geometry" />
        </mxCell>
        <mxCell id="vhygpVMg7qetOzyWHxxr-80" value="/" style="rounded=1;whiteSpace=wrap;html=1;strokeColor=#FFFFFF;fontColor=#FFFFFF;fillColor=#182E3E;fontSize=20;" vertex="1" parent="1">
          <mxGeometry x="710" y="720" width="60" height="60" as="geometry" />
        </mxCell>
        <mxCell id="vhygpVMg7qetOzyWHxxr-81" value="" style="rounded=1;whiteSpace=wrap;html=1;strokeColor=#FFFFFF;fontColor=#FFFFFF;fillColor=#182E3E;fontSize=20;" vertex="1" parent="1">
          <mxGeometry x="770" y="720" width="60" height="60" as="geometry" />
        </mxCell>
        <mxCell id="vhygpVMg7qetOzyWHxxr-82" value="5" style="rounded=1;whiteSpace=wrap;html=1;strokeColor=#FFFFFF;fontColor=#FFFFFF;fillColor=#182E3E;fontSize=20;" vertex="1" parent="1">
          <mxGeometry x="310" y="600" width="60" height="60" as="geometry" />
        </mxCell>
        <mxCell id="vhygpVMg7qetOzyWHxxr-83" value="4" style="rounded=1;whiteSpace=wrap;html=1;strokeColor=#FFFFFF;fontColor=#FFFFFF;fillColor=#182E3E;fontSize=20;" vertex="1" parent="1">
          <mxGeometry x="250" y="590" width="60" height="60" as="geometry" />
        </mxCell>
        <mxCell id="vhygpVMg7qetOzyWHxxr-84" value="3" style="rounded=1;whiteSpace=wrap;html=1;strokeColor=#FFFFFF;fontColor=#FFFFFF;fillColor=#182E3E;fontSize=20;" vertex="1" parent="1">
          <mxGeometry x="190" y="580" width="60" height="60" as="geometry" />
        </mxCell>
        <mxCell id="vhygpVMg7qetOzyWHxxr-85" value="2" style="rounded=1;whiteSpace=wrap;html=1;strokeColor=#FFFFFF;fontColor=#FFFFFF;fillColor=#182E3E;fontSize=20;" vertex="1" parent="1">
          <mxGeometry x="130" y="590" width="60" height="60" as="geometry" />
        </mxCell>
        <mxCell id="vhygpVMg7qetOzyWHxxr-86" value="1" style="rounded=1;whiteSpace=wrap;html=1;strokeColor=#FFFFFF;fontColor=#FFFFFF;fillColor=#182E3E;fontSize=20;" vertex="1" parent="1">
          <mxGeometry x="70" y="600" width="60" height="60" as="geometry" />
        </mxCell>
        <mxCell id="vhygpVMg7qetOzyWHxxr-87" value="" style="rounded=1;whiteSpace=wrap;html=1;strokeColor=#FFFFFF;fontColor=#FFFFFF;fillColor=#182E3E;fontSize=20;" vertex="1" parent="1">
          <mxGeometry x="10" y="600" width="60" height="60" as="geometry" />
        </mxCell>
        <mxCell id="vhygpVMg7qetOzyWHxxr-88" value="[" style="rounded=1;whiteSpace=wrap;html=1;strokeColor=#FFFFFF;fontColor=#FFFFFF;fillColor=#182E3E;fontSize=20;" vertex="1" parent="1">
          <mxGeometry x="310" y="660" width="60" height="60" as="geometry" />
        </mxCell>
        <mxCell id="vhygpVMg7qetOzyWHxxr-89" value="&lt;div style=&quot;font-size: 20px;&quot;&gt;{&lt;br style=&quot;font-size: 20px;&quot;&gt;&lt;/div&gt;" style="rounded=1;whiteSpace=wrap;html=1;strokeColor=#FFFFFF;fontColor=#FFFFFF;fillColor=#182E3E;fontSize=20;" vertex="1" parent="1">
          <mxGeometry x="250" y="650" width="60" height="60" as="geometry" />
        </mxCell>
        <mxCell id="vhygpVMg7qetOzyWHxxr-90" value="(" style="rounded=1;whiteSpace=wrap;html=1;strokeColor=#FFFFFF;fontColor=#FFFFFF;fillColor=#182E3E;fontSize=20;" vertex="1" parent="1">
          <mxGeometry x="190" y="640" width="60" height="60" as="geometry" />
        </mxCell>
        <mxCell id="vhygpVMg7qetOzyWHxxr-91" value="%" style="rounded=1;whiteSpace=wrap;html=1;strokeColor=#FFFFFF;fontColor=#FFFFFF;fillColor=#182E3E;fontSize=20;" vertex="1" parent="1">
          <mxGeometry x="130" y="650" width="60" height="60" as="geometry" />
        </mxCell>
        <mxCell id="vhygpVMg7qetOzyWHxxr-92" value="&amp;lt;" style="rounded=1;whiteSpace=wrap;html=1;strokeColor=#FFFFFF;fontColor=#FFFFFF;fillColor=#182E3E;fontSize=20;" vertex="1" parent="1">
          <mxGeometry x="70" y="660" width="60" height="60" as="geometry" />
        </mxCell>
        <mxCell id="vhygpVMg7qetOzyWHxxr-93" value="" style="rounded=1;whiteSpace=wrap;html=1;strokeColor=#FFFFFF;fontColor=#FFFFFF;fillColor=#182E3E;fontSize=20;" vertex="1" parent="1">
          <mxGeometry x="10" y="660" width="60" height="60" as="geometry" />
        </mxCell>
        <mxCell id="vhygpVMg7qetOzyWHxxr-94" value="]" style="rounded=1;whiteSpace=wrap;html=1;strokeColor=#FFFFFF;fontColor=#FFFFFF;fillColor=#182E3E;fontSize=20;" vertex="1" parent="1">
          <mxGeometry x="310" y="720" width="60" height="60" as="geometry" />
        </mxCell>
        <mxCell id="vhygpVMg7qetOzyWHxxr-95" value="}" style="rounded=1;whiteSpace=wrap;html=1;strokeColor=#FFFFFF;fontColor=#FFFFFF;fillColor=#182E3E;fontSize=20;" vertex="1" parent="1">
          <mxGeometry x="250" y="710" width="60" height="60" as="geometry" />
        </mxCell>
        <mxCell id="vhygpVMg7qetOzyWHxxr-96" value=")" style="rounded=1;whiteSpace=wrap;html=1;strokeColor=#FFFFFF;fontColor=#FFFFFF;fillColor=#182E3E;fontSize=20;" vertex="1" parent="1">
          <mxGeometry x="190" y="700" width="60" height="60" as="geometry" />
        </mxCell>
        <mxCell id="vhygpVMg7qetOzyWHxxr-97" value="$" style="rounded=1;whiteSpace=wrap;html=1;strokeColor=#FFFFFF;fontColor=#FFFFFF;fillColor=#182E3E;fontSize=20;" vertex="1" parent="1">
          <mxGeometry x="130" y="710" width="60" height="60" as="geometry" />
        </mxCell>
        <mxCell id="vhygpVMg7qetOzyWHxxr-98" value="&amp;gt;" style="rounded=1;whiteSpace=wrap;html=1;strokeColor=#FFFFFF;fontColor=#FFFFFF;fillColor=#182E3E;fontSize=20;" vertex="1" parent="1">
          <mxGeometry x="70" y="720" width="60" height="60" as="geometry" />
        </mxCell>
        <mxCell id="vhygpVMg7qetOzyWHxxr-99" value="" style="rounded=1;whiteSpace=wrap;html=1;strokeColor=#FFFFFF;fontColor=#FFFFFF;fillColor=#182E3E;fontSize=20;" vertex="1" parent="1">
          <mxGeometry x="10" y="720" width="60" height="60" as="geometry" />
        </mxCell>
        <mxCell id="vhygpVMg7qetOzyWHxxr-100" value="" style="rounded=1;whiteSpace=wrap;html=1;strokeColor=#FFFFFF;fontColor=#FFFFFF;fillColor=#182E3E;fontSize=20;" vertex="1" parent="1">
          <mxGeometry x="610" y="800" width="60" height="60" as="geometry" />
        </mxCell>
        <mxCell id="vhygpVMg7qetOzyWHxxr-101" value="" style="rounded=1;whiteSpace=wrap;html=1;strokeColor=#FFFFFF;fontColor=#FFFFFF;fillColor=#182E3E;fontSize=20;" vertex="1" parent="1">
          <mxGeometry x="170" y="800" width="60" height="60" as="geometry" />
        </mxCell>
        <mxCell id="vhygpVMg7qetOzyWHxxr-102" value="FNC" style="rounded=1;whiteSpace=wrap;html=1;strokeColor=#FFFFFF;fontColor=#FFFFFF;fillColor=#182E3E;rotation=15;fontSize=20;" vertex="1" parent="1">
          <mxGeometry x="240" y="810" width="60" height="60" as="geometry" />
        </mxCell>
        <mxCell id="vhygpVMg7qetOzyWHxxr-103" value="SYM 2" style="rounded=1;whiteSpace=wrap;html=1;strokeColor=#FFFFFF;fontColor=#FFFFFF;fillColor=#182E3E;rotation=45;fontSize=20;" vertex="1" parent="1">
          <mxGeometry x="310" y="820" width="60" height="60" as="geometry" />
        </mxCell>
        <mxCell id="vhygpVMg7qetOzyWHxxr-104" value="" style="rounded=1;whiteSpace=wrap;html=1;strokeColor=#FFFFFF;fontColor=#FFFFFF;fillColor=#182E3E;rotation=-30;fontSize=20;" vertex="1" parent="1">
          <mxGeometry x="470" y="820" width="60" height="60" as="geometry" />
        </mxCell>
        <mxCell id="vhygpVMg7qetOzyWHxxr-105" value="" style="rounded=1;whiteSpace=wrap;html=1;strokeColor=#FFFFFF;fontColor=#FFFFFF;fillColor=#182E3E;rotation=-15;fontSize=20;" vertex="1" parent="1">
          <mxGeometry x="540" y="810" width="60" height="60" as="geometry" />
        </mxCell>
        <mxCell id="vhygpVMg7qetOzyWHxxr-106" value="SYM 1" style="rounded=1;whiteSpace=wrap;html=1;strokeColor=#FFFFFF;fontColor=#FFFFFF;fillColor=#007FFF;fontSize=20;" vertex="1" parent="1">
          <mxGeometry x="350" y="480" width="130" height="60" as="geometry" />
        </mxCell>
        <mxCell id="vhygpVMg7qetOzyWHxxr-107" value="6" style="rounded=1;whiteSpace=wrap;html=1;strokeColor=#FFFFFF;fontColor=#FFFFFF;fillColor=#182E3E;fontSize=20;" vertex="1" parent="1">
          <mxGeometry x="475" y="1050" width="60" height="60" as="geometry" />
        </mxCell>
        <mxCell id="vhygpVMg7qetOzyWHxxr-108" value="7" style="rounded=1;whiteSpace=wrap;html=1;strokeColor=#FFFFFF;fontColor=#FFFFFF;fillColor=#182E3E;fontSize=20;" vertex="1" parent="1">
          <mxGeometry x="535" y="1040" width="60" height="60" as="geometry" />
        </mxCell>
        <mxCell id="vhygpVMg7qetOzyWHxxr-109" value="8" style="rounded=1;whiteSpace=wrap;html=1;strokeColor=#FFFFFF;fontColor=#FFFFFF;fillColor=#182E3E;fontSize=20;" vertex="1" parent="1">
          <mxGeometry x="595" y="1030" width="60" height="60" as="geometry" />
        </mxCell>
        <mxCell id="vhygpVMg7qetOzyWHxxr-110" value="9" style="rounded=1;whiteSpace=wrap;html=1;strokeColor=#FFFFFF;fontColor=#FFFFFF;fillColor=#182E3E;fontSize=20;" vertex="1" parent="1">
          <mxGeometry x="655" y="1040" width="60" height="60" as="geometry" />
        </mxCell>
        <mxCell id="vhygpVMg7qetOzyWHxxr-111" value="0" style="rounded=1;whiteSpace=wrap;html=1;strokeColor=#FFFFFF;fontColor=#FFFFFF;fillColor=#182E3E;fontSize=20;" vertex="1" parent="1">
          <mxGeometry x="715" y="1050" width="60" height="60" as="geometry" />
        </mxCell>
        <mxCell id="vhygpVMg7qetOzyWHxxr-112" value="" style="rounded=1;whiteSpace=wrap;html=1;strokeColor=#FFFFFF;fontColor=#FFFFFF;fillColor=#182E3E;fontSize=20;" vertex="1" parent="1">
          <mxGeometry x="775" y="1050" width="60" height="60" as="geometry" />
        </mxCell>
        <mxCell id="vhygpVMg7qetOzyWHxxr-113" value="=" style="rounded=1;whiteSpace=wrap;html=1;strokeColor=#FFFFFF;fontColor=#FFFFFF;fillColor=#182E3E;fontSize=20;" vertex="1" parent="1">
          <mxGeometry x="475" y="1110" width="60" height="60" as="geometry" />
        </mxCell>
        <mxCell id="vhygpVMg7qetOzyWHxxr-114" value="?" style="rounded=1;whiteSpace=wrap;html=1;strokeColor=#FFFFFF;fontColor=#FFFFFF;fillColor=#182E3E;fontSize=20;" vertex="1" parent="1">
          <mxGeometry x="535" y="1100" width="60" height="60" as="geometry" />
        </mxCell>
        <mxCell id="vhygpVMg7qetOzyWHxxr-115" value="&#39;" style="rounded=1;whiteSpace=wrap;html=1;strokeColor=#FFFFFF;fontColor=#FFFFFF;fillColor=#182E3E;fontSize=20;" vertex="1" parent="1">
          <mxGeometry x="595" y="1090" width="60" height="60" as="geometry" />
        </mxCell>
        <mxCell id="vhygpVMg7qetOzyWHxxr-116" value="+" style="rounded=1;whiteSpace=wrap;html=1;strokeColor=#FFFFFF;fontColor=#FFFFFF;fillColor=#182E3E;fontSize=20;" vertex="1" parent="1">
          <mxGeometry x="655" y="1100" width="60" height="60" as="geometry" />
        </mxCell>
        <mxCell id="vhygpVMg7qetOzyWHxxr-117" value="*" style="rounded=1;whiteSpace=wrap;html=1;strokeColor=#FFFFFF;fontColor=#FFFFFF;fillColor=#182E3E;fontSize=20;" vertex="1" parent="1">
          <mxGeometry x="715" y="1110" width="60" height="60" as="geometry" />
        </mxCell>
        <mxCell id="vhygpVMg7qetOzyWHxxr-118" value="" style="rounded=1;whiteSpace=wrap;html=1;strokeColor=#FFFFFF;fontColor=#FFFFFF;fillColor=#182E3E;fontSize=20;" vertex="1" parent="1">
          <mxGeometry x="775" y="1110" width="60" height="60" as="geometry" />
        </mxCell>
        <mxCell id="vhygpVMg7qetOzyWHxxr-119" value="@" style="rounded=1;whiteSpace=wrap;html=1;strokeColor=#FFFFFF;fontColor=#FFFFFF;fillColor=#182E3E;fontSize=20;" vertex="1" parent="1">
          <mxGeometry x="475" y="1170" width="60" height="60" as="geometry" />
        </mxCell>
        <mxCell id="vhygpVMg7qetOzyWHxxr-120" value="!" style="rounded=1;whiteSpace=wrap;html=1;strokeColor=#FFFFFF;fontColor=#FFFFFF;fillColor=#182E3E;fontSize=20;" vertex="1" parent="1">
          <mxGeometry x="535" y="1160" width="60" height="60" as="geometry" />
        </mxCell>
        <mxCell id="vhygpVMg7qetOzyWHxxr-121" value="&quot;" style="rounded=1;whiteSpace=wrap;html=1;strokeColor=#FFFFFF;fontColor=#FFFFFF;fillColor=#182E3E;fontSize=20;" vertex="1" parent="1">
          <mxGeometry x="595" y="1150" width="60" height="60" as="geometry" />
        </mxCell>
        <mxCell id="vhygpVMg7qetOzyWHxxr-122" value="-" style="rounded=1;whiteSpace=wrap;html=1;strokeColor=#FFFFFF;fontColor=#FFFFFF;fillColor=#182E3E;fontSize=20;" vertex="1" parent="1">
          <mxGeometry x="655" y="1160" width="60" height="60" as="geometry" />
        </mxCell>
        <mxCell id="vhygpVMg7qetOzyWHxxr-123" value="/" style="rounded=1;whiteSpace=wrap;html=1;strokeColor=#FFFFFF;fontColor=#FFFFFF;fillColor=#182E3E;fontSize=20;" vertex="1" parent="1">
          <mxGeometry x="715" y="1170" width="60" height="60" as="geometry" />
        </mxCell>
        <mxCell id="vhygpVMg7qetOzyWHxxr-124" value="" style="rounded=1;whiteSpace=wrap;html=1;strokeColor=#FFFFFF;fontColor=#FFFFFF;fillColor=#182E3E;fontSize=20;" vertex="1" parent="1">
          <mxGeometry x="775" y="1170" width="60" height="60" as="geometry" />
        </mxCell>
        <mxCell id="vhygpVMg7qetOzyWHxxr-125" value="5" style="rounded=1;whiteSpace=wrap;html=1;strokeColor=#FFFFFF;fontColor=#FFFFFF;fillColor=#182E3E;fontSize=20;" vertex="1" parent="1">
          <mxGeometry x="315" y="1050" width="60" height="60" as="geometry" />
        </mxCell>
        <mxCell id="vhygpVMg7qetOzyWHxxr-126" value="4" style="rounded=1;whiteSpace=wrap;html=1;strokeColor=#FFFFFF;fontColor=#FFFFFF;fillColor=#182E3E;fontSize=20;" vertex="1" parent="1">
          <mxGeometry x="255" y="1040" width="60" height="60" as="geometry" />
        </mxCell>
        <mxCell id="vhygpVMg7qetOzyWHxxr-127" value="3" style="rounded=1;whiteSpace=wrap;html=1;strokeColor=#FFFFFF;fontColor=#FFFFFF;fillColor=#182E3E;fontSize=20;" vertex="1" parent="1">
          <mxGeometry x="195" y="1030" width="60" height="60" as="geometry" />
        </mxCell>
        <mxCell id="vhygpVMg7qetOzyWHxxr-128" value="2" style="rounded=1;whiteSpace=wrap;html=1;strokeColor=#FFFFFF;fontColor=#FFFFFF;fillColor=#182E3E;fontSize=20;" vertex="1" parent="1">
          <mxGeometry x="135" y="1040" width="60" height="60" as="geometry" />
        </mxCell>
        <mxCell id="vhygpVMg7qetOzyWHxxr-129" value="1" style="rounded=1;whiteSpace=wrap;html=1;strokeColor=#FFFFFF;fontColor=#FFFFFF;fillColor=#182E3E;fontSize=20;" vertex="1" parent="1">
          <mxGeometry x="75" y="1050" width="60" height="60" as="geometry" />
        </mxCell>
        <mxCell id="vhygpVMg7qetOzyWHxxr-130" value="" style="rounded=1;whiteSpace=wrap;html=1;strokeColor=#FFFFFF;fontColor=#FFFFFF;fillColor=#182E3E;fontSize=20;" vertex="1" parent="1">
          <mxGeometry x="15" y="1050" width="60" height="60" as="geometry" />
        </mxCell>
        <mxCell id="vhygpVMg7qetOzyWHxxr-131" value="[" style="rounded=1;whiteSpace=wrap;html=1;strokeColor=#FFFFFF;fontColor=#FFFFFF;fillColor=#182E3E;fontSize=20;" vertex="1" parent="1">
          <mxGeometry x="315" y="1110" width="60" height="60" as="geometry" />
        </mxCell>
        <mxCell id="vhygpVMg7qetOzyWHxxr-132" value="&lt;div style=&quot;font-size: 20px;&quot;&gt;{&lt;br style=&quot;font-size: 20px;&quot;&gt;&lt;/div&gt;" style="rounded=1;whiteSpace=wrap;html=1;strokeColor=#FFFFFF;fontColor=#FFFFFF;fillColor=#182E3E;fontSize=20;" vertex="1" parent="1">
          <mxGeometry x="255" y="1100" width="60" height="60" as="geometry" />
        </mxCell>
        <mxCell id="vhygpVMg7qetOzyWHxxr-133" value="(" style="rounded=1;whiteSpace=wrap;html=1;strokeColor=#FFFFFF;fontColor=#FFFFFF;fillColor=#182E3E;fontSize=20;" vertex="1" parent="1">
          <mxGeometry x="195" y="1090" width="60" height="60" as="geometry" />
        </mxCell>
        <mxCell id="vhygpVMg7qetOzyWHxxr-134" value="%" style="rounded=1;whiteSpace=wrap;html=1;strokeColor=#FFFFFF;fontColor=#FFFFFF;fillColor=#182E3E;fontSize=20;" vertex="1" parent="1">
          <mxGeometry x="135" y="1100" width="60" height="60" as="geometry" />
        </mxCell>
        <mxCell id="vhygpVMg7qetOzyWHxxr-135" value="&amp;lt;" style="rounded=1;whiteSpace=wrap;html=1;strokeColor=#FFFFFF;fontColor=#FFFFFF;fillColor=#182E3E;fontSize=20;" vertex="1" parent="1">
          <mxGeometry x="75" y="1110" width="60" height="60" as="geometry" />
        </mxCell>
        <mxCell id="vhygpVMg7qetOzyWHxxr-136" value="" style="rounded=1;whiteSpace=wrap;html=1;strokeColor=#FFFFFF;fontColor=#FFFFFF;fillColor=#182E3E;fontSize=20;" vertex="1" parent="1">
          <mxGeometry x="15" y="1110" width="60" height="60" as="geometry" />
        </mxCell>
        <mxCell id="vhygpVMg7qetOzyWHxxr-137" value="]" style="rounded=1;whiteSpace=wrap;html=1;strokeColor=#FFFFFF;fontColor=#FFFFFF;fillColor=#182E3E;fontSize=20;" vertex="1" parent="1">
          <mxGeometry x="315" y="1170" width="60" height="60" as="geometry" />
        </mxCell>
        <mxCell id="vhygpVMg7qetOzyWHxxr-138" value="}" style="rounded=1;whiteSpace=wrap;html=1;strokeColor=#FFFFFF;fontColor=#FFFFFF;fillColor=#182E3E;fontSize=20;" vertex="1" parent="1">
          <mxGeometry x="255" y="1160" width="60" height="60" as="geometry" />
        </mxCell>
        <mxCell id="vhygpVMg7qetOzyWHxxr-139" value=")" style="rounded=1;whiteSpace=wrap;html=1;strokeColor=#FFFFFF;fontColor=#FFFFFF;fillColor=#182E3E;fontSize=20;" vertex="1" parent="1">
          <mxGeometry x="195" y="1150" width="60" height="60" as="geometry" />
        </mxCell>
        <mxCell id="vhygpVMg7qetOzyWHxxr-140" value="$" style="rounded=1;whiteSpace=wrap;html=1;strokeColor=#FFFFFF;fontColor=#FFFFFF;fillColor=#182E3E;fontSize=20;" vertex="1" parent="1">
          <mxGeometry x="135" y="1160" width="60" height="60" as="geometry" />
        </mxCell>
        <mxCell id="vhygpVMg7qetOzyWHxxr-141" value="&amp;gt;" style="rounded=1;whiteSpace=wrap;html=1;strokeColor=#FFFFFF;fontColor=#FFFFFF;fillColor=#182E3E;fontSize=20;" vertex="1" parent="1">
          <mxGeometry x="75" y="1170" width="60" height="60" as="geometry" />
        </mxCell>
        <mxCell id="vhygpVMg7qetOzyWHxxr-142" value="" style="rounded=1;whiteSpace=wrap;html=1;strokeColor=#FFFFFF;fontColor=#FFFFFF;fillColor=#182E3E;fontSize=20;" vertex="1" parent="1">
          <mxGeometry x="15" y="1170" width="60" height="60" as="geometry" />
        </mxCell>
        <mxCell id="vhygpVMg7qetOzyWHxxr-143" value="" style="rounded=1;whiteSpace=wrap;html=1;strokeColor=#FFFFFF;fontColor=#FFFFFF;fillColor=#182E3E;fontSize=20;" vertex="1" parent="1">
          <mxGeometry x="615" y="1250" width="60" height="60" as="geometry" />
        </mxCell>
        <mxCell id="vhygpVMg7qetOzyWHxxr-144" value="" style="rounded=1;whiteSpace=wrap;html=1;strokeColor=#FFFFFF;fontColor=#FFFFFF;fillColor=#182E3E;fontSize=20;" vertex="1" parent="1">
          <mxGeometry x="175" y="1250" width="60" height="60" as="geometry" />
        </mxCell>
        <mxCell id="vhygpVMg7qetOzyWHxxr-145" value="EXT" style="rounded=1;whiteSpace=wrap;html=1;strokeColor=#FFFFFF;fontColor=#FFFFFF;fillColor=#182E3E;rotation=15;fontSize=20;" vertex="1" parent="1">
          <mxGeometry x="245" y="1260" width="60" height="60" as="geometry" />
        </mxCell>
        <mxCell id="vhygpVMg7qetOzyWHxxr-146" value="SHIFT" style="rounded=1;whiteSpace=wrap;html=1;strokeColor=#FFFFFF;fontColor=#FFFFFF;fillColor=#182E3E;rotation=45;fontSize=20;" vertex="1" parent="1">
          <mxGeometry x="315" y="1270" width="60" height="60" as="geometry" />
        </mxCell>
        <mxCell id="vhygpVMg7qetOzyWHxxr-147" value="SPACE" style="rounded=1;whiteSpace=wrap;html=1;strokeColor=#FFFFFF;fontColor=#FFFFFF;fillColor=#182E3E;rotation=-30;fontSize=20;" vertex="1" parent="1">
          <mxGeometry x="475" y="1270" width="60" height="60" as="geometry" />
        </mxCell>
        <mxCell id="vhygpVMg7qetOzyWHxxr-148" value="SYM 1" style="rounded=1;whiteSpace=wrap;html=1;strokeColor=#FFFFFF;fontColor=#FFFFFF;fillColor=#182E3E;rotation=-15;fontSize=20;" vertex="1" parent="1">
          <mxGeometry x="545" y="1260" width="60" height="60" as="geometry" />
        </mxCell>
        <mxCell id="vhygpVMg7qetOzyWHxxr-149" value="EXT" style="rounded=1;whiteSpace=wrap;html=1;strokeColor=#FFFFFF;fontColor=#FFFFFF;fillColor=#990000;fontSize=20;" vertex="1" parent="1">
          <mxGeometry x="355" y="930" width="130" height="60" as="geometry" />
        </mxCell>
        <mxCell id="vhygpVMg7qetOzyWHxxr-152" value="ACC" style="rounded=1;whiteSpace=wrap;html=1;strokeColor=#FFFFFF;fontColor=#FFFFFF;fillColor=#9933FF;fontSize=20;" vertex="1" parent="1">
          <mxGeometry x="715" y="420" width="60" height="60" as="geometry" />
        </mxCell>
      </root>
    </mxGraphModel>
  </diagram>
</mxfile>
